#!OML:ASF H:\LiuWeirdWalks\Patient Classification 1\Patient 1\Session 1\male.ASF
:FULLY-SPECIFIED
:DEGREES
158
root -0.375984 17.4716 -27.0875 8.81588 5.21274 -4.85086
lowerback 7.55161 -2.19101 2.64821
upperback -2.07731 -2.24338 6.85147
thorax -6.26413 -1.06322 6.04056
lowerneck -15.4805 5.76456 8.8347
upperneck 15.5091 8.78474 -15.1691
head 8.48557 3.29956 -5.51676
rclavicle 3.63776e-014 -1.59028e-015
rhumerus -32.3011 -1.79679 -76.1764
rradius 17.6547
rwrist 2.62097
rhand -15.1135 -5.31722
rfingers 7.12502
rthumb 11.0553 -35.0061
lclavicle 3.63776e-014 -1.59028e-015
lhumerus -42.7281 12.5883 86.9534
lradius 33.3102
lwrist 13.1826
lhand -13.1841 -0.67182
lfingers 7.12502
lthumb 12.9158 28.9085
rfemur 4.54241 1.64387 29.8393
rtibia 13.6431
rfoot -17.3908 -29.0959
rtoes -0.367828
lfemur -45.729 1.13461 -12.7148
ltibia 40.2098
lfoot -9.78675 10.9315
ltoes -18.0577
159
root -0.372596 17.456 -26.9657 8.93276 5.37077 -4.8593
lowerback 7.55468 -2.01845 2.69153
upperback -2.06115 -2.01016 6.80948
thorax -6.27077 -0.950024 5.94039
lowerneck -15.514 5.53493 8.7171
upperneck 15.4382 8.46051 -15.077
head 8.41425 3.14878 -5.50694
rclavicle 2.127e-014 -1.27222e-014
rhumerus -32.2432 -1.64732 -76.3855
rradius 17.8598
rwrist 2.21213
rhand -15.1845 -5.40874
rfingers 7.12502
rthumb 10.9868 -35.1012
lclavicle 2.127e-014 -1.27222e-014
lhumerus -43.2221 12.5477 86.6872
lradius 33.2369
lwrist 13.1202
lhand -13.1813 -0.616264
lfingers 7.12502
lthumb 12.9184 28.9639
rfemur 5.44771 1.58647 29.9178
rtibia 12.4115
rfoot -16.7963 -29.1105
rtoes -0.57728
lfemur -46.1823 0.806615 -12.649
ltibia 38.4968
lfoot -9.46394 10.7031
ltoes -18.0742
160
root -0.367871 17.4392 -26.8404 9.06606 5.50152 -4.87597
lowerback 7.53175 -1.75357 2.75659
upperback -2.08873 -1.65413 6.69218
thorax -6.32034 -0.777854 5.7316
lowerneck -15.4421 5.13915 8.55442
upperneck 15.386 7.88718 -14.809
head 8.28668 2.89731 -5.46204
rclavicle 1.41137e-014 0
rhumerus -32.3317 -1.81427 -76.5697
rradius 18.0965
rwrist 1.85213
rhand -15.279 -5.50615
rfingers 7.12502
rthumb 10.8956 -35.2035
lclavicle 1.41137e-014 0
lhumerus -43.7449 12.2366 86.3764
lradius 33.0872
lwrist 13.0353
lhand -13.1803 -0.546594
lfingers 7.12502
lthumb 12.9194 29.0335
rfemur 6.43039 1.50854 29.9828
rtibia 11.0193
rfoot -16.1415 -29.0323
rtoes -0.917307
lfemur -46.6338 0.504391 -12.5695
ltibia 36.8214
lfoot -9.22729 10.5211
ltoes -18.0487
161
root -0.363225 17.4209 -26.7119 9.18991 5.6249 -4.93678
lowerback 7.49766 -1.46467 2.86639
upperback -2.12767 -1.26235 6.56142
thorax -6.37702 -0.590214 5.47815
lowerneck -15.2409 4.70881 8.40299
upperneck 15.2256 7.25209 -14.508
head 8.09403 2.62756 -5.41204
rclavicle 1.86858e-014 -4.29375e-014
rhumerus -32.4612 -2.05355 -76.7588
rradius 18.3614
rwrist 1.50361
rhand -15.3852 -5.5933
rfingers 7.12502
rthumb 10.7932 -35.296
lclavicle 1.86858e-014 -4.29375e-014
lhumerus -44.2848 11.8856 86.0093
lradius 32.8948
lwrist 12.9159
lhand -13.1916 -0.473101
lfingers 7.12502
lthumb 12.9085 29.1077
rfemur 7.54565 1.24204 30.0698
rtibia 9.40232
rfoot -15.4515 -28.709
rtoes -1.35905
lfemur -47.0679 0.243652 -12.4431
ltibia 35.2006
lfoot -9.04357 10.3568
ltoes -18.0417
162
root -0.358726 17.4009 -26.5804 9.31743 5.7311 -5.03086
lowerback 7.4524 -1.10295 3.01261
upperback -2.17838 -0.772142 6.38621
thorax -6.44379 -0.356681 5.14348
lowerneck -15.0747 4.15651 8.17434
upperneck 15.1754 6.44649 -14.0455
head 7.91746 2.2812 -5.31366
rclavicle -1.41137e-014 4.29375e-014
rhumerus -32.6362 -2.56747 -76.9048
rradius 18.6293
rwrist 1.20481
rhand -15.4883 -5.65086
rfingers 7.12502
rthumb 10.6938 -35.3587
lclavicle -1.41137e-014 4.29375e-014
lhumerus -44.7821 11.3537 85.6137
lradius 32.6259
lwrist 12.7454
lhand -13.2171 -0.414943
lfingers 7.12502
lthumb 12.8839 29.1674
rfemur 8.84321 0.99836 30.1825
rtibia 7.43661
rfoot -14.593 -28.3266
rtoes -1.91035
lfemur -47.5018 0.0474152 -12.2945
ltibia 33.652
lfoot -8.92007 10.2211
ltoes -18.0314
